<?xml version="1.0" encoding="utf-8"?>
<!-- Generator: Adobe Illustrator 22.1.0, SVG Export Plug-In . SVG Version: 6.00 Build 0)  -->
<svg version="1.1" id="Layer_1" xmlns="http://www.w3.org/2000/svg" xmlns:xlink="http://www.w3.org/1999/xlink" x="0px" y="0px"
	 viewBox="0 0 18 17.5" style="enable-background:new 0 0 18 17.5;" xml:space="preserve">
<style type="text/css">
	.st0{fill:none;}
	.st1{fill:#B32025;}
	.st2{fill:#AA9944;}
</style>
<g>
	<path class="st0" d="M5.3,1.4C4.7,1.1,4,0.9,3.3,0.9C2.7,1,2,1.2,1.8,1.6C1.4,2,1.6,2.5,2.1,2.9C2.6,3.3,3.3,3.4,4,3.6
		c1.5,0.2,3,0.5,4.4,0.7C7.7,3,6.6,2,5.3,1.4z"/>
	<path class="st0" d="M15.9,2.9c0.5-0.4,0.7-0.8,0.4-1.2C16,1.2,15.3,1,14.7,0.9c-0.7,0-1.3,0.1-2,0.4C11.5,2,10.4,3,9.5,4.3
		c1.5-0.2,3-0.5,4.4-0.7C14.7,3.4,15.4,3.3,15.9,2.9z"/>
	<polygon class="st1" points="8.5,5.2 0,5.2 0,8.6 0.3,8.6 0.3,8.6 8.5,8.6 	"/>
	<polygon class="st1" points="9.5,5.2 9.5,8.6 17.7,8.6 17.7,8.6 18,8.6 18,5.2 	"/>
	<polygon class="st1" points="1.3,9.6 1.3,17.5 8.5,17.5 8.5,17.5 8.5,9.6 	"/>
	<polygon class="st1" points="9.5,17.5 9.5,17.5 16.9,17.5 16.9,9.6 9.5,9.6 	"/>
	<path class="st2" d="M14.1,4.3c0.8-0.1,1.6-0.2,2.4-0.7c0.4-0.2,0.7-0.6,0.9-1.1c0.2-0.5,0.1-1.1-0.2-1.5C16.5,0.3,15.5,0,14.7,0
		c-0.8,0-1.7,0.2-2.4,0.7C11,1.5,10,2.9,9.5,4.3C10.4,3,11.5,2,12.7,1.4c0.6-0.3,1.3-0.4,2-0.4c0.6,0,1.3,0.3,1.6,0.7
		c0.3,0.4,0.2,0.9-0.4,1.2c-0.5,0.4-1.2,0.5-1.9,0.7c-1.5,0.2-3,0.5-4.4,0.7C11.1,4.5,12.6,4.5,14.1,4.3z"/>
	<path class="st2" d="M1.6,3.7c0.8,0.5,1.6,0.6,2.4,0.7c1.5,0.1,3,0.1,4.5,0C7,4.1,5.5,3.8,4,3.6C3.3,3.4,2.6,3.3,2.1,2.9
		C1.6,2.5,1.4,2,1.8,1.6C2,1.2,2.7,1,3.3,0.9c0.7,0,1.3,0.1,2,0.4C6.6,2,7.7,3,8.5,4.3C8,2.9,7.1,1.5,5.7,0.7C5,0.2,4.2,0,3.3,0
		C2.5,0,1.5,0.3,0.9,1.1c-0.3,0.4-0.4,1-0.2,1.5C0.9,3.1,1.2,3.4,1.6,3.7z"/>
</g>
</svg>
